<mxfile host="app.diagrams.net" modified="2023-05-22T11:02:57.798Z" agent="Mozilla/5.0 (Windows NT 10.0; Win64; x64) AppleWebKit/537.36 (KHTML, like Gecko) Chrome/113.0.0.0 Safari/537.36" etag="CfqptQnLfks3toj9PT4v" version="21.3.2" type="device">
  <diagram name="Page-1" id="b520641d-4fe3-3701-9064-5fc419738815">
    <mxGraphModel dx="1647" dy="868" grid="1" gridSize="10" guides="1" tooltips="1" connect="1" arrows="1" fold="1" page="1" pageScale="1" pageWidth="1100" pageHeight="850" background="none" math="0" shadow="0">
      <root>
        <mxCell id="0" />
        <mxCell id="1" parent="0" />
        <mxCell id="ZCkzlSqzLpyXrUV3Gwg4-12" value="" style="edgeStyle=orthogonalEdgeStyle;rounded=0;orthogonalLoop=1;jettySize=auto;html=1;" edge="1" parent="1" source="ZCkzlSqzLpyXrUV3Gwg4-1" target="ZCkzlSqzLpyXrUV3Gwg4-5">
          <mxGeometry relative="1" as="geometry" />
        </mxCell>
        <mxCell id="ZCkzlSqzLpyXrUV3Gwg4-1" value="Meggsius Inspect" style="rounded=1;whiteSpace=wrap;html=1;" vertex="1" parent="1">
          <mxGeometry x="40" y="39" width="120" height="81" as="geometry" />
        </mxCell>
        <mxCell id="ZCkzlSqzLpyXrUV3Gwg4-13" style="edgeStyle=orthogonalEdgeStyle;rounded=0;orthogonalLoop=1;jettySize=auto;html=1;entryX=0;entryY=0.5;entryDx=0;entryDy=0;" edge="1" parent="1" source="ZCkzlSqzLpyXrUV3Gwg4-2" target="ZCkzlSqzLpyXrUV3Gwg4-5">
          <mxGeometry relative="1" as="geometry" />
        </mxCell>
        <mxCell id="ZCkzlSqzLpyXrUV3Gwg4-2" value="Klimaat Computer" style="rounded=1;whiteSpace=wrap;html=1;" vertex="1" parent="1">
          <mxGeometry x="40" y="159" width="120" height="81" as="geometry" />
        </mxCell>
        <mxCell id="ZCkzlSqzLpyXrUV3Gwg4-14" style="edgeStyle=orthogonalEdgeStyle;rounded=0;orthogonalLoop=1;jettySize=auto;html=1;entryX=0;entryY=0.5;entryDx=0;entryDy=0;" edge="1" parent="1" source="ZCkzlSqzLpyXrUV3Gwg4-3" target="ZCkzlSqzLpyXrUV3Gwg4-5">
          <mxGeometry relative="1" as="geometry" />
        </mxCell>
        <mxCell id="ZCkzlSqzLpyXrUV3Gwg4-3" value="Voercomputer" style="rounded=1;whiteSpace=wrap;html=1;" vertex="1" parent="1">
          <mxGeometry x="40" y="280" width="120" height="80" as="geometry" />
        </mxCell>
        <mxCell id="ZCkzlSqzLpyXrUV3Gwg4-16" style="edgeStyle=orthogonalEdgeStyle;rounded=0;orthogonalLoop=1;jettySize=auto;html=1;entryX=0;entryY=0.5;entryDx=0;entryDy=0;" edge="1" parent="1" source="ZCkzlSqzLpyXrUV3Gwg4-4" target="ZCkzlSqzLpyXrUV3Gwg4-6">
          <mxGeometry relative="1" as="geometry" />
        </mxCell>
        <mxCell id="ZCkzlSqzLpyXrUV3Gwg4-4" value="Manual Input" style="rounded=1;whiteSpace=wrap;html=1;" vertex="1" parent="1">
          <mxGeometry x="200" y="159" width="120" height="81" as="geometry" />
        </mxCell>
        <mxCell id="ZCkzlSqzLpyXrUV3Gwg4-15" style="edgeStyle=orthogonalEdgeStyle;rounded=0;orthogonalLoop=1;jettySize=auto;html=1;entryX=0;entryY=0.5;entryDx=0;entryDy=0;" edge="1" parent="1" source="ZCkzlSqzLpyXrUV3Gwg4-5" target="ZCkzlSqzLpyXrUV3Gwg4-6">
          <mxGeometry relative="1" as="geometry" />
        </mxCell>
        <mxCell id="ZCkzlSqzLpyXrUV3Gwg4-5" value="Import API" style="rounded=1;whiteSpace=wrap;html=1;" vertex="1" parent="1">
          <mxGeometry x="200" y="39" width="120" height="81" as="geometry" />
        </mxCell>
        <mxCell id="ZCkzlSqzLpyXrUV3Gwg4-17" style="edgeStyle=orthogonalEdgeStyle;rounded=0;orthogonalLoop=1;jettySize=auto;html=1;entryX=0;entryY=0.5;entryDx=0;entryDy=0;" edge="1" parent="1" source="ZCkzlSqzLpyXrUV3Gwg4-6" target="ZCkzlSqzLpyXrUV3Gwg4-8">
          <mxGeometry relative="1" as="geometry" />
        </mxCell>
        <mxCell id="ZCkzlSqzLpyXrUV3Gwg4-18" style="edgeStyle=orthogonalEdgeStyle;rounded=0;orthogonalLoop=1;jettySize=auto;html=1;entryX=0;entryY=0.5;entryDx=0;entryDy=0;" edge="1" parent="1" source="ZCkzlSqzLpyXrUV3Gwg4-6" target="ZCkzlSqzLpyXrUV3Gwg4-7">
          <mxGeometry relative="1" as="geometry" />
        </mxCell>
        <mxCell id="ZCkzlSqzLpyXrUV3Gwg4-6" value="Timetable" style="rounded=1;whiteSpace=wrap;html=1;" vertex="1" parent="1">
          <mxGeometry x="360" y="100" width="120" height="80" as="geometry" />
        </mxCell>
        <mxCell id="ZCkzlSqzLpyXrUV3Gwg4-19" value="" style="edgeStyle=orthogonalEdgeStyle;rounded=0;orthogonalLoop=1;jettySize=auto;html=1;" edge="1" parent="1" source="ZCkzlSqzLpyXrUV3Gwg4-7" target="ZCkzlSqzLpyXrUV3Gwg4-9">
          <mxGeometry relative="1" as="geometry" />
        </mxCell>
        <mxCell id="ZCkzlSqzLpyXrUV3Gwg4-20" style="edgeStyle=orthogonalEdgeStyle;rounded=0;orthogonalLoop=1;jettySize=auto;html=1;entryX=0;entryY=0.5;entryDx=0;entryDy=0;" edge="1" parent="1" source="ZCkzlSqzLpyXrUV3Gwg4-7" target="ZCkzlSqzLpyXrUV3Gwg4-10">
          <mxGeometry relative="1" as="geometry" />
        </mxCell>
        <mxCell id="ZCkzlSqzLpyXrUV3Gwg4-21" style="edgeStyle=orthogonalEdgeStyle;rounded=0;orthogonalLoop=1;jettySize=auto;html=1;entryX=0;entryY=0.5;entryDx=0;entryDy=0;" edge="1" parent="1" source="ZCkzlSqzLpyXrUV3Gwg4-7" target="ZCkzlSqzLpyXrUV3Gwg4-11">
          <mxGeometry relative="1" as="geometry" />
        </mxCell>
        <mxCell id="ZCkzlSqzLpyXrUV3Gwg4-7" value="Export API" style="rounded=1;whiteSpace=wrap;html=1;" vertex="1" parent="1">
          <mxGeometry x="520" y="39" width="120" height="81" as="geometry" />
        </mxCell>
        <mxCell id="ZCkzlSqzLpyXrUV3Gwg4-8" value="Export PNG" style="rounded=1;whiteSpace=wrap;html=1;" vertex="1" parent="1">
          <mxGeometry x="520" y="159" width="120" height="81" as="geometry" />
        </mxCell>
        <mxCell id="ZCkzlSqzLpyXrUV3Gwg4-9" value="Meggsius Inspect" style="rounded=1;whiteSpace=wrap;html=1;" vertex="1" parent="1">
          <mxGeometry x="680" y="39" width="120" height="81" as="geometry" />
        </mxCell>
        <mxCell id="ZCkzlSqzLpyXrUV3Gwg4-10" value="Klimaat Computer" style="rounded=1;whiteSpace=wrap;html=1;" vertex="1" parent="1">
          <mxGeometry x="680" y="159" width="120" height="81" as="geometry" />
        </mxCell>
        <mxCell id="ZCkzlSqzLpyXrUV3Gwg4-11" value="Voercomputer" style="rounded=1;whiteSpace=wrap;html=1;" vertex="1" parent="1">
          <mxGeometry x="680" y="280" width="120" height="81" as="geometry" />
        </mxCell>
      </root>
    </mxGraphModel>
  </diagram>
</mxfile>
